0
SECTION
2
HEADER
9
$ACADVER
1
AC1009
9
$INSUNITS
70
4
0
ENDSEC
0
SECTION
2
TABLES
0
TABLE
2
LTYPE
70
3
0
LTYPE
5
C4
2
CONTINUOUS
70
0
3
Solid line
72
65
73
0
40
0.0
0
LTYPE
5
C5
2
DASHED
70
0
3
Dashed
72
65
73
2
40
9.5
49
6.0
49
-3.5
0
LTYPE
5
C6
2
CENTER
70
0
3
Center
72
65
73
4
40
28.3
49
11.5
49
-4.5
49
5.0
49
-7.5
0
ENDTAB
0
TABLE
2
LAYER
70
6
0
LAYER
5
C1
2
GEOMETRIA
70
0
62
7
6
CONTINUOUS
0
LAYER
5
C2
2
CELDAS
70
0
62
3
6
CONTINUOUS
0
LAYER
5
C3
2
CELDAS_TRIM
70
0
62
1
6
CONTINUOUS
0
LAYER
5
C7
2
EJES
70
0
62
8
6
DASHED
0
LAYER
5
C8
2
TEXTO
70
0
62
7
6
CONTINUOUS
0
LAYER
5
C9
2
COTAS
70
0
62
7
6
CONTINUOUS
0
ENDTAB
0
ENDTAB
0
ENDSEC
0
SECTION
2
BLOCKS
0
ENDSEC
0
SECTION
2
ENTITIES
0
LINE
5
1
100
AcDbEntity
8
GEOMETRIA
100
AcDbLine
10
-1200.0
20
-1200.0
30
0.0
11
1200.0
21
-1200.0
31
0.0
0
LINE
5
2
100
AcDbEntity
8
GEOMETRIA
100
AcDbLine
10
1200.0
20
-1200.0
30
0.0
11
1200.0
21
1200.0
31
0.0
0
LINE
5
3
100
AcDbEntity
8
GEOMETRIA
100
AcDbLine
10
1200.0
20
1200.0
30
0.0
11
-1200.0
21
1200.0
31
0.0
0
LINE
5
4
100
AcDbEntity
8
GEOMETRIA
100
AcDbLine
10
-1200.0
20
1200.0
30
0.0
11
-1200.0
21
-1200.0
31
0.0
0
LINE
5
5
100
AcDbEntity
8
GEOMETRIA
100
AcDbLine
10
-125.0
20
-125.0
30
0.0
11
125.0
21
-125.0
31
0.0
0
LINE
5
6
100
AcDbEntity
8
GEOMETRIA
100
AcDbLine
10
125.0
20
-125.0
30
0.0
11
125.0
21
125.0
31
0.0
0
LINE
5
7
100
AcDbEntity
8
GEOMETRIA
100
AcDbLine
10
125.0
20
125.0
30
0.0
11
-125.0
21
125.0
31
0.0
0
LINE
5
8
100
AcDbEntity
8
GEOMETRIA
100
AcDbLine
10
-125.0
20
125.0
30
0.0
11
-125.0
21
-125.0
31
0.0
0
LINE
5
9
100
AcDbEntity
8
EJES
100
AcDbLine
6
DASHED
10
-1200.0
20
-1200.0
30
0.0
11
0.0
21
0.0
31
0.0
0
LINE
5
A
100
AcDbEntity
8
EJES
100
AcDbLine
6
DASHED
10
1200.0
20
-1200.0
30
0.0
11
0.0
21
0.0
31
0.0
0
LINE
5
B
100
AcDbEntity
8
EJES
100
AcDbLine
6
DASHED
10
1200.0
20
1200.0
30
0.0
11
0.0
21
0.0
31
0.0
0
LINE
5
C
100
AcDbEntity
8
EJES
100
AcDbLine
6
DASHED
10
-1200.0
20
1200.0
30
0.0
11
0.0
21
0.0
31
0.0
0
LINE
5
D
100
AcDbEntity
8
EJES
100
AcDbLine
6
CENTER
10
0.0
20
-1200.0
30
0.0
11
0.0
21
1200.0
31
0.0
0
LINE
5
E
100
AcDbEntity
8
EJES
100
AcDbLine
6
CENTER
10
-1200.0
20
0.0
30
0.0
11
1200.0
21
0.0
31
0.0
0
TEXT
5
F
100
AcDbEntity
8
TEXTO
100
AcDbText
10
-1200.0
20
-1460.0
30
0.0
40
70.0
1
2400 x 2400 (alero)  /  vano poste 250 x 250
0
SEQEND
0
TEXT
5
10
100
AcDbEntity
8
TEXTO
100
AcDbText
10
-1200.0
20
1380.0
30
0.0
40
100.0
1
PLANTA
0
SEQEND
0
LINE
5
11
100
AcDbEntity
8
GEOMETRIA
100
AcDbLine
10
1400.0
20
0.0
30
0.0
11
3800.0
21
0.0
31
0.0
0
LINE
5
12
100
AcDbEntity
8
GEOMETRIA
100
AcDbLine
10
1400.0
20
0.0
30
0.0
11
2475.0
21
288.0
31
0.0
0
LINE
5
13
100
AcDbEntity
8
GEOMETRIA
100
AcDbLine
10
3800.0
20
0.0
30
0.0
11
2725.0
21
288.0
31
0.0
0
LINE
5
14
100
AcDbEntity
8
GEOMETRIA
100
AcDbLine
10
2475.0
20
288.0
30
0.0
11
2725.0
21
288.0
31
0.0
0
LINE
5
15
100
AcDbEntity
8
GEOMETRIA
100
AcDbLine
10
1400.0
20
0.0
30
0.0
11
2600.0
21
288.0
31
0.0
0
LINE
5
16
100
AcDbEntity
8
GEOMETRIA
100
AcDbLine
10
3800.0
20
0.0
30
0.0
11
2600.0
21
288.0
31
0.0
0
LINE
5
17
100
AcDbEntity
8
EJES
100
AcDbLine
6
CENTER
10
2600.0
20
0.0
30
0.0
11
2600.0
21
288.0
31
0.0
0
TEXT
5
18
100
AcDbEntity
8
TEXTO
100
AcDbText
10
1400.0
20
-260.0
30
0.0
40
55.0
1
base 2400
0
SEQEND
0
TEXT
5
19
100
AcDbEntity
8
TEXTO
100
AcDbText
10
2600.0
20
408.0
30
0.0
40
55.0
1
cumbrera 250
0
SEQEND
0
TEXT
5
1A
100
AcDbEntity
8
TEXTO
100
AcDbText
10
2600.0
20
528.0
30
0.0
40
50.0
1
H=288 15deg
0
SEQEND
0
TEXT
5
1B
100
AcDbEntity
8
TEXTO
100
AcDbText
10
1400.0
20
468.0
30
0.0
40
100.0
1
FRONTAL
0
SEQEND
0
LINE
5
1C
100
AcDbEntity
8
GEOMETRIA
100
AcDbLine
10
4000.0
20
0.0
30
0.0
11
6400.0
21
0.0
31
0.0
0
LINE
5
1D
100
AcDbEntity
8
GEOMETRIA
100
AcDbLine
10
4000.0
20
0.0
30
0.0
11
5075.0
21
1112.9
31
0.0
0
LINE
5
1E
100
AcDbEntity
8
GEOMETRIA
100
AcDbLine
10
6400.0
20
0.0
30
0.0
11
5325.0
21
1112.9
31
0.0
0
LINE
5
1F
100
AcDbEntity
8
GEOMETRIA
100
AcDbLine
10
5075.0
20
1112.9
30
0.0
11
5325.0
21
1112.9
31
0.0
0
LINE
5
20
100
AcDbEntity
8
EJES
100
AcDbLine
6
CENTER
10
5200.0
20
0.0
30
0.0
11
5200.0
21
1112.9
31
0.0
0
TEXT
5
21
100
AcDbEntity
8
TEXTO
100
AcDbText
10
3840.0
20
1052.9
30
0.0
40
55.0
1
S=1113mm (15deg)
0
SEQEND
0
TEXT
5
22
100
AcDbEntity
8
TEXTO
100
AcDbText
10
5200.0
20
1272.9
30
0.0
40
60.0
1
10 filas - 60 celdas/cara
0
SEQEND
0
TEXT
5
23
100
AcDbEntity
8
TEXTO
100
AcDbText
10
5200.0
20
1372.9
30
0.0
40
60.0
1
tis: 240 celdas x 3.4W = 816 W (STC)
0
SEQEND
0
TEXT
5
24
100
AcDbEntity
8
TEXTO
100
AcDbText
10
3660.0
20
133.5
30
0.0
40
48.0
1
fila1: 10
0
SEQEND
0
LINE
5
25
100
AcDbEntity
8
CELDAS
100
AcDbLine
10
4276.5
20
88.0
30
0.0
11
4458.5
21
88.0
31
0.0
0
LINE
5
26
100
AcDbEntity
8
CELDAS
100
AcDbLine
10
4458.5
20
88.0
30
0.0
11
4458.5
21
179.0
31
0.0
0
LINE
5
27
100
AcDbEntity
8
CELDAS
100
AcDbLine
10
4458.5
20
179.0
30
0.0
11
4276.5
21
179.0
31
0.0
0
LINE
5
28
100
AcDbEntity
8
CELDAS
100
AcDbLine
10
4276.5
20
179.0
30
0.0
11
4276.5
21
88.0
31
0.0
0
LINE
5
29
100
AcDbEntity
8
CELDAS
100
AcDbLine
10
4461.5
20
88.0
30
0.0
11
4643.5
21
88.0
31
0.0
0
LINE
5
2A
100
AcDbEntity
8
CELDAS
100
AcDbLine
10
4643.5
20
88.0
30
0.0
11
4643.5
21
179.0
31
0.0
0
LINE
5
2B
100
AcDbEntity
8
CELDAS
100
AcDbLine
10
4643.5
20
179.0
30
0.0
11
4461.5
21
179.0
31
0.0
0
LINE
5
2C
100
AcDbEntity
8
CELDAS
100
AcDbLine
10
4461.5
20
179.0
30
0.0
11
4461.5
21
88.0
31
0.0
0
LINE
5
2D
100
AcDbEntity
8
CELDAS
100
AcDbLine
10
4646.5
20
88.0
30
0.0
11
4828.5
21
88.0
31
0.0
0
LINE
5
2E
100
AcDbEntity
8
CELDAS
100
AcDbLine
10
4828.5
20
88.0
30
0.0
11
4828.5
21
179.0
31
0.0
0
LINE
5
2F
100
AcDbEntity
8
CELDAS
100
AcDbLine
10
4828.5
20
179.0
30
0.0
11
4646.5
21
179.0
31
0.0
0
LINE
5
30
100
AcDbEntity
8
CELDAS
100
AcDbLine
10
4646.5
20
179.0
30
0.0
11
4646.5
21
88.0
31
0.0
0
LINE
5
31
100
AcDbEntity
8
CELDAS
100
AcDbLine
10
4831.5
20
88.0
30
0.0
11
5013.5
21
88.0
31
0.0
0
LINE
5
32
100
AcDbEntity
8
CELDAS
100
AcDbLine
10
5013.5
20
88.0
30
0.0
11
5013.5
21
179.0
31
0.0
0
LINE
5
33
100
AcDbEntity
8
CELDAS
100
AcDbLine
10
5013.5
20
179.0
30
0.0
11
4831.5
21
179.0
31
0.0
0
LINE
5
34
100
AcDbEntity
8
CELDAS
100
AcDbLine
10
4831.5
20
179.0
30
0.0
11
4831.5
21
88.0
31
0.0
0
LINE
5
35
100
AcDbEntity
8
CELDAS
100
AcDbLine
10
5016.5
20
88.0
30
0.0
11
5198.5
21
88.0
31
0.0
0
LINE
5
36
100
AcDbEntity
8
CELDAS
100
AcDbLine
10
5198.5
20
88.0
30
0.0
11
5198.5
21
179.0
31
0.0
0
LINE
5
37
100
AcDbEntity
8
CELDAS
100
AcDbLine
10
5198.5
20
179.0
30
0.0
11
5016.5
21
179.0
31
0.0
0
LINE
5
38
100
AcDbEntity
8
CELDAS
100
AcDbLine
10
5016.5
20
179.0
30
0.0
11
5016.5
21
88.0
31
0.0
0
LINE
5
39
100
AcDbEntity
8
CELDAS
100
AcDbLine
10
5201.5
20
88.0
30
0.0
11
5383.5
21
88.0
31
0.0
0
LINE
5
3A
100
AcDbEntity
8
CELDAS
100
AcDbLine
10
5383.5
20
88.0
30
0.0
11
5383.5
21
179.0
31
0.0
0
LINE
5
3B
100
AcDbEntity
8
CELDAS
100
AcDbLine
10
5383.5
20
179.0
30
0.0
11
5201.5
21
179.0
31
0.0
0
LINE
5
3C
100
AcDbEntity
8
CELDAS
100
AcDbLine
10
5201.5
20
179.0
30
0.0
11
5201.5
21
88.0
31
0.0
0
LINE
5
3D
100
AcDbEntity
8
CELDAS
100
AcDbLine
10
5386.5
20
88.0
30
0.0
11
5568.5
21
88.0
31
0.0
0
LINE
5
3E
100
AcDbEntity
8
CELDAS
100
AcDbLine
10
5568.5
20
88.0
30
0.0
11
5568.5
21
179.0
31
0.0
0
LINE
5
3F
100
AcDbEntity
8
CELDAS
100
AcDbLine
10
5568.5
20
179.0
30
0.0
11
5386.5
21
179.0
31
0.0
0
LINE
5
40
100
AcDbEntity
8
CELDAS
100
AcDbLine
10
5386.5
20
179.0
30
0.0
11
5386.5
21
88.0
31
0.0
0
LINE
5
41
100
AcDbEntity
8
CELDAS
100
AcDbLine
10
5571.5
20
88.0
30
0.0
11
5753.5
21
88.0
31
0.0
0
LINE
5
42
100
AcDbEntity
8
CELDAS
100
AcDbLine
10
5753.5
20
88.0
30
0.0
11
5753.5
21
179.0
31
0.0
0
LINE
5
43
100
AcDbEntity
8
CELDAS
100
AcDbLine
10
5753.5
20
179.0
30
0.0
11
5571.5
21
179.0
31
0.0
0
LINE
5
44
100
AcDbEntity
8
CELDAS
100
AcDbLine
10
5571.5
20
179.0
30
0.0
11
5571.5
21
88.0
31
0.0
0
LINE
5
45
100
AcDbEntity
8
CELDAS
100
AcDbLine
10
5756.5
20
88.0
30
0.0
11
5938.5
21
88.0
31
0.0
0
LINE
5
46
100
AcDbEntity
8
CELDAS
100
AcDbLine
10
5938.5
20
88.0
30
0.0
11
5938.5
21
179.0
31
0.0
0
LINE
5
47
100
AcDbEntity
8
CELDAS
100
AcDbLine
10
5938.5
20
179.0
30
0.0
11
5756.5
21
179.0
31
0.0
0
LINE
5
48
100
AcDbEntity
8
CELDAS
100
AcDbLine
10
5756.5
20
179.0
30
0.0
11
5756.5
21
88.0
31
0.0
0
LINE
5
49
100
AcDbEntity
8
CELDAS
100
AcDbLine
10
5941.5
20
88.0
30
0.0
11
6123.5
21
88.0
31
0.0
0
LINE
5
4A
100
AcDbEntity
8
CELDAS
100
AcDbLine
10
6123.5
20
88.0
30
0.0
11
6123.5
21
179.0
31
0.0
0
LINE
5
4B
100
AcDbEntity
8
CELDAS
100
AcDbLine
10
6123.5
20
179.0
30
0.0
11
5941.5
21
179.0
31
0.0
0
LINE
5
4C
100
AcDbEntity
8
CELDAS
100
AcDbLine
10
5941.5
20
179.0
30
0.0
11
5941.5
21
88.0
31
0.0
0
TEXT
5
4D
100
AcDbEntity
8
TEXTO
100
AcDbText
10
3660.0
20
227.5
30
0.0
40
48.0
1
fila2: 9
0
SEQEND
0
LINE
5
4E
100
AcDbEntity
8
CELDAS
100
AcDbLine
10
4369.0
20
182.0
30
0.0
11
4551.0
21
182.0
31
0.0
0
LINE
5
4F
100
AcDbEntity
8
CELDAS
100
AcDbLine
10
4551.0
20
182.0
30
0.0
11
4551.0
21
273.0
31
0.0
0
LINE
5
50
100
AcDbEntity
8
CELDAS
100
AcDbLine
10
4551.0
20
273.0
30
0.0
11
4369.0
21
273.0
31
0.0
0
LINE
5
51
100
AcDbEntity
8
CELDAS
100
AcDbLine
10
4369.0
20
273.0
30
0.0
11
4369.0
21
182.0
31
0.0
0
LINE
5
52
100
AcDbEntity
8
CELDAS
100
AcDbLine
10
4554.0
20
182.0
30
0.0
11
4736.0
21
182.0
31
0.0
0
LINE
5
53
100
AcDbEntity
8
CELDAS
100
AcDbLine
10
4736.0
20
182.0
30
0.0
11
4736.0
21
273.0
31
0.0
0
LINE
5
54
100
AcDbEntity
8
CELDAS
100
AcDbLine
10
4736.0
20
273.0
30
0.0
11
4554.0
21
273.0
31
0.0
0
LINE
5
55
100
AcDbEntity
8
CELDAS
100
AcDbLine
10
4554.0
20
273.0
30
0.0
11
4554.0
21
182.0
31
0.0
0
LINE
5
56
100
AcDbEntity
8
CELDAS
100
AcDbLine
10
4739.0
20
182.0
30
0.0
11
4921.0
21
182.0
31
0.0
0
LINE
5
57
100
AcDbEntity
8
CELDAS
100
AcDbLine
10
4921.0
20
182.0
30
0.0
11
4921.0
21
273.0
31
0.0
0
LINE
5
58
100
AcDbEntity
8
CELDAS
100
AcDbLine
10
4921.0
20
273.0
30
0.0
11
4739.0
21
273.0
31
0.0
0
LINE
5
59
100
AcDbEntity
8
CELDAS
100
AcDbLine
10
4739.0
20
273.0
30
0.0
11
4739.0
21
182.0
31
0.0
0
LINE
5
5A
100
AcDbEntity
8
CELDAS
100
AcDbLine
10
4924.0
20
182.0
30
0.0
11
5106.0
21
182.0
31
0.0
0
LINE
5
5B
100
AcDbEntity
8
CELDAS
100
AcDbLine
10
5106.0
20
182.0
30
0.0
11
5106.0
21
273.0
31
0.0
0
LINE
5
5C
100
AcDbEntity
8
CELDAS
100
AcDbLine
10
5106.0
20
273.0
30
0.0
11
4924.0
21
273.0
31
0.0
0
LINE
5
5D
100
AcDbEntity
8
CELDAS
100
AcDbLine
10
4924.0
20
273.0
30
0.0
11
4924.0
21
182.0
31
0.0
0
LINE
5
5E
100
AcDbEntity
8
CELDAS
100
AcDbLine
10
5109.0
20
182.0
30
0.0
11
5291.0
21
182.0
31
0.0
0
LINE
5
5F
100
AcDbEntity
8
CELDAS
100
AcDbLine
10
5291.0
20
182.0
30
0.0
11
5291.0
21
273.0
31
0.0
0
LINE
5
60
100
AcDbEntity
8
CELDAS
100
AcDbLine
10
5291.0
20
273.0
30
0.0
11
5109.0
21
273.0
31
0.0
0
LINE
5
61
100
AcDbEntity
8
CELDAS
100
AcDbLine
10
5109.0
20
273.0
30
0.0
11
5109.0
21
182.0
31
0.0
0
LINE
5
62
100
AcDbEntity
8
CELDAS
100
AcDbLine
10
5294.0
20
182.0
30
0.0
11
5476.0
21
182.0
31
0.0
0
LINE
5
63
100
AcDbEntity
8
CELDAS
100
AcDbLine
10
5476.0
20
182.0
30
0.0
11
5476.0
21
273.0
31
0.0
0
LINE
5
64
100
AcDbEntity
8
CELDAS
100
AcDbLine
10
5476.0
20
273.0
30
0.0
11
5294.0
21
273.0
31
0.0
0
LINE
5
65
100
AcDbEntity
8
CELDAS
100
AcDbLine
10
5294.0
20
273.0
30
0.0
11
5294.0
21
182.0
31
0.0
0
LINE
5
66
100
AcDbEntity
8
CELDAS
100
AcDbLine
10
5479.0
20
182.0
30
0.0
11
5661.0
21
182.0
31
0.0
0
LINE
5
67
100
AcDbEntity
8
CELDAS
100
AcDbLine
10
5661.0
20
182.0
30
0.0
11
5661.0
21
273.0
31
0.0
0
LINE
5
68
100
AcDbEntity
8
CELDAS
100
AcDbLine
10
5661.0
20
273.0
30
0.0
11
5479.0
21
273.0
31
0.0
0
LINE
5
69
100
AcDbEntity
8
CELDAS
100
AcDbLine
10
5479.0
20
273.0
30
0.0
11
5479.0
21
182.0
31
0.0
0
LINE
5
6A
100
AcDbEntity
8
CELDAS
100
AcDbLine
10
5664.0
20
182.0
30
0.0
11
5846.0
21
182.0
31
0.0
0
LINE
5
6B
100
AcDbEntity
8
CELDAS
100
AcDbLine
10
5846.0
20
182.0
30
0.0
11
5846.0
21
273.0
31
0.0
0
LINE
5
6C
100
AcDbEntity
8
CELDAS
100
AcDbLine
10
5846.0
20
273.0
30
0.0
11
5664.0
21
273.0
31
0.0
0
LINE
5
6D
100
AcDbEntity
8
CELDAS
100
AcDbLine
10
5664.0
20
273.0
30
0.0
11
5664.0
21
182.0
31
0.0
0
LINE
5
6E
100
AcDbEntity
8
CELDAS
100
AcDbLine
10
5849.0
20
182.0
30
0.0
11
6031.0
21
182.0
31
0.0
0
LINE
5
6F
100
AcDbEntity
8
CELDAS
100
AcDbLine
10
6031.0
20
182.0
30
0.0
11
6031.0
21
273.0
31
0.0
0
LINE
5
70
100
AcDbEntity
8
CELDAS
100
AcDbLine
10
6031.0
20
273.0
30
0.0
11
5849.0
21
273.0
31
0.0
0
LINE
5
71
100
AcDbEntity
8
CELDAS
100
AcDbLine
10
5849.0
20
273.0
30
0.0
11
5849.0
21
182.0
31
0.0
0
TEXT
5
72
100
AcDbEntity
8
TEXTO
100
AcDbText
10
3660.0
20
321.5
30
0.0
40
48.0
1
fila3: 8
0
SEQEND
0
LINE
5
73
100
AcDbEntity
8
CELDAS
100
AcDbLine
10
4461.5
20
276.0
30
0.0
11
4643.5
21
276.0
31
0.0
0
LINE
5
74
100
AcDbEntity
8
CELDAS
100
AcDbLine
10
4643.5
20
276.0
30
0.0
11
4643.5
21
367.0
31
0.0
0
LINE
5
75
100
AcDbEntity
8
CELDAS
100
AcDbLine
10
4643.5
20
367.0
30
0.0
11
4461.5
21
367.0
31
0.0
0
LINE
5
76
100
AcDbEntity
8
CELDAS
100
AcDbLine
10
4461.5
20
367.0
30
0.0
11
4461.5
21
276.0
31
0.0
0
LINE
5
77
100
AcDbEntity
8
CELDAS
100
AcDbLine
10
4646.5
20
276.0
30
0.0
11
4828.5
21
276.0
31
0.0
0
LINE
5
78
100
AcDbEntity
8
CELDAS
100
AcDbLine
10
4828.5
20
276.0
30
0.0
11
4828.5
21
367.0
31
0.0
0
LINE
5
79
100
AcDbEntity
8
CELDAS
100
AcDbLine
10
4828.5
20
367.0
30
0.0
11
4646.5
21
367.0
31
0.0
0
LINE
5
7A
100
AcDbEntity
8
CELDAS
100
AcDbLine
10
4646.5
20
367.0
30
0.0
11
4646.5
21
276.0
31
0.0
0
LINE
5
7B
100
AcDbEntity
8
CELDAS
100
AcDbLine
10
4831.5
20
276.0
30
0.0
11
5013.5
21
276.0
31
0.0
0
LINE
5
7C
100
AcDbEntity
8
CELDAS
100
AcDbLine
10
5013.5
20
276.0
30
0.0
11
5013.5
21
367.0
31
0.0
0
LINE
5
7D
100
AcDbEntity
8
CELDAS
100
AcDbLine
10
5013.5
20
367.0
30
0.0
11
4831.5
21
367.0
31
0.0
0
LINE
5
7E
100
AcDbEntity
8
CELDAS
100
AcDbLine
10
4831.5
20
367.0
30
0.0
11
4831.5
21
276.0
31
0.0
0
LINE
5
7F
100
AcDbEntity
8
CELDAS
100
AcDbLine
10
5016.5
20
276.0
30
0.0
11
5198.5
21
276.0
31
0.0
0
LINE
5
80
100
AcDbEntity
8
CELDAS
100
AcDbLine
10
5198.5
20
276.0
30
0.0
11
5198.5
21
367.0
31
0.0
0
LINE
5
81
100
AcDbEntity
8
CELDAS
100
AcDbLine
10
5198.5
20
367.0
30
0.0
11
5016.5
21
367.0
31
0.0
0
LINE
5
82
100
AcDbEntity
8
CELDAS
100
AcDbLine
10
5016.5
20
367.0
30
0.0
11
5016.5
21
276.0
31
0.0
0
LINE
5
83
100
AcDbEntity
8
CELDAS
100
AcDbLine
10
5201.5
20
276.0
30
0.0
11
5383.5
21
276.0
31
0.0
0
LINE
5
84
100
AcDbEntity
8
CELDAS
100
AcDbLine
10
5383.5
20
276.0
30
0.0
11
5383.5
21
367.0
31
0.0
0
LINE
5
85
100
AcDbEntity
8
CELDAS
100
AcDbLine
10
5383.5
20
367.0
30
0.0
11
5201.5
21
367.0
31
0.0
0
LINE
5
86
100
AcDbEntity
8
CELDAS
100
AcDbLine
10
5201.5
20
367.0
30
0.0
11
5201.5
21
276.0
31
0.0
0
LINE
5
87
100
AcDbEntity
8
CELDAS
100
AcDbLine
10
5386.5
20
276.0
30
0.0
11
5568.5
21
276.0
31
0.0
0
LINE
5
88
100
AcDbEntity
8
CELDAS
100
AcDbLine
10
5568.5
20
276.0
30
0.0
11
5568.5
21
367.0
31
0.0
0
LINE
5
89
100
AcDbEntity
8
CELDAS
100
AcDbLine
10
5568.5
20
367.0
30
0.0
11
5386.5
21
367.0
31
0.0
0
LINE
5
8A
100
AcDbEntity
8
CELDAS
100
AcDbLine
10
5386.5
20
367.0
30
0.0
11
5386.5
21
276.0
31
0.0
0
LINE
5
8B
100
AcDbEntity
8
CELDAS
100
AcDbLine
10
5571.5
20
276.0
30
0.0
11
5753.5
21
276.0
31
0.0
0
LINE
5
8C
100
AcDbEntity
8
CELDAS
100
AcDbLine
10
5753.5
20
276.0
30
0.0
11
5753.5
21
367.0
31
0.0
0
LINE
5
8D
100
AcDbEntity
8
CELDAS
100
AcDbLine
10
5753.5
20
367.0
30
0.0
11
5571.5
21
367.0
31
0.0
0
LINE
5
8E
100
AcDbEntity
8
CELDAS
100
AcDbLine
10
5571.5
20
367.0
30
0.0
11
5571.5
21
276.0
31
0.0
0
LINE
5
8F
100
AcDbEntity
8
CELDAS
100
AcDbLine
10
5756.5
20
276.0
30
0.0
11
5938.5
21
276.0
31
0.0
0
LINE
5
90
100
AcDbEntity
8
CELDAS
100
AcDbLine
10
5938.5
20
276.0
30
0.0
11
5938.5
21
367.0
31
0.0
0
LINE
5
91
100
AcDbEntity
8
CELDAS
100
AcDbLine
10
5938.5
20
367.0
30
0.0
11
5756.5
21
367.0
31
0.0
0
LINE
5
92
100
AcDbEntity
8
CELDAS
100
AcDbLine
10
5756.5
20
367.0
30
0.0
11
5756.5
21
276.0
31
0.0
0
TEXT
5
93
100
AcDbEntity
8
TEXTO
100
AcDbText
10
3660.0
20
415.5
30
0.0
40
48.0
1
fila4: 7
0
SEQEND
0
LINE
5
94
100
AcDbEntity
8
CELDAS
100
AcDbLine
10
4554.0
20
370.0
30
0.0
11
4736.0
21
370.0
31
0.0
0
LINE
5
95
100
AcDbEntity
8
CELDAS
100
AcDbLine
10
4736.0
20
370.0
30
0.0
11
4736.0
21
461.0
31
0.0
0
LINE
5
96
100
AcDbEntity
8
CELDAS
100
AcDbLine
10
4736.0
20
461.0
30
0.0
11
4554.0
21
461.0
31
0.0
0
LINE
5
97
100
AcDbEntity
8
CELDAS
100
AcDbLine
10
4554.0
20
461.0
30
0.0
11
4554.0
21
370.0
31
0.0
0
LINE
5
98
100
AcDbEntity
8
CELDAS
100
AcDbLine
10
4739.0
20
370.0
30
0.0
11
4921.0
21
370.0
31
0.0
0
LINE
5
99
100
AcDbEntity
8
CELDAS
100
AcDbLine
10
4921.0
20
370.0
30
0.0
11
4921.0
21
461.0
31
0.0
0
LINE
5
9A
100
AcDbEntity
8
CELDAS
100
AcDbLine
10
4921.0
20
461.0
30
0.0
11
4739.0
21
461.0
31
0.0
0
LINE
5
9B
100
AcDbEntity
8
CELDAS
100
AcDbLine
10
4739.0
20
461.0
30
0.0
11
4739.0
21
370.0
31
0.0
0
LINE
5
9C
100
AcDbEntity
8
CELDAS
100
AcDbLine
10
4924.0
20
370.0
30
0.0
11
5106.0
21
370.0
31
0.0
0
LINE
5
9D
100
AcDbEntity
8
CELDAS
100
AcDbLine
10
5106.0
20
370.0
30
0.0
11
5106.0
21
461.0
31
0.0
0
LINE
5
9E
100
AcDbEntity
8
CELDAS
100
AcDbLine
10
5106.0
20
461.0
30
0.0
11
4924.0
21
461.0
31
0.0
0
LINE
5
9F
100
AcDbEntity
8
CELDAS
100
AcDbLine
10
4924.0
20
461.0
30
0.0
11
4924.0
21
370.0
31
0.0
0
LINE
5
A0
100
AcDbEntity
8
CELDAS
100
AcDbLine
10
5109.0
20
370.0
30
0.0
11
5291.0
21
370.0
31
0.0
0
LINE
5
A1
100
AcDbEntity
8
CELDAS
100
AcDbLine
10
5291.0
20
370.0
30
0.0
11
5291.0
21
461.0
31
0.0
0
LINE
5
A2
100
AcDbEntity
8
CELDAS
100
AcDbLine
10
5291.0
20
461.0
30
0.0
11
5109.0
21
461.0
31
0.0
0
LINE
5
A3
100
AcDbEntity
8
CELDAS
100
AcDbLine
10
5109.0
20
461.0
30
0.0
11
5109.0
21
370.0
31
0.0
0
LINE
5
A4
100
AcDbEntity
8
CELDAS
100
AcDbLine
10
5294.0
20
370.0
30
0.0
11
5476.0
21
370.0
31
0.0
0
LINE
5
A5
100
AcDbEntity
8
CELDAS
100
AcDbLine
10
5476.0
20
370.0
30
0.0
11
5476.0
21
461.0
31
0.0
0
LINE
5
A6
100
AcDbEntity
8
CELDAS
100
AcDbLine
10
5476.0
20
461.0
30
0.0
11
5294.0
21
461.0
31
0.0
0
LINE
5
A7
100
AcDbEntity
8
CELDAS
100
AcDbLine
10
5294.0
20
461.0
30
0.0
11
5294.0
21
370.0
31
0.0
0
LINE
5
A8
100
AcDbEntity
8
CELDAS
100
AcDbLine
10
5479.0
20
370.0
30
0.0
11
5661.0
21
370.0
31
0.0
0
LINE
5
A9
100
AcDbEntity
8
CELDAS
100
AcDbLine
10
5661.0
20
370.0
30
0.0
11
5661.0
21
461.0
31
0.0
0
LINE
5
AA
100
AcDbEntity
8
CELDAS
100
AcDbLine
10
5661.0
20
461.0
30
0.0
11
5479.0
21
461.0
31
0.0
0
LINE
5
AB
100
AcDbEntity
8
CELDAS
100
AcDbLine
10
5479.0
20
461.0
30
0.0
11
5479.0
21
370.0
31
0.0
0
LINE
5
AC
100
AcDbEntity
8
CELDAS
100
AcDbLine
10
5664.0
20
370.0
30
0.0
11
5846.0
21
370.0
31
0.0
0
LINE
5
AD
100
AcDbEntity
8
CELDAS
100
AcDbLine
10
5846.0
20
370.0
30
0.0
11
5846.0
21
461.0
31
0.0
0
LINE
5
AE
100
AcDbEntity
8
CELDAS
100
AcDbLine
10
5846.0
20
461.0
30
0.0
11
5664.0
21
461.0
31
0.0
0
LINE
5
AF
100
AcDbEntity
8
CELDAS
100
AcDbLine
10
5664.0
20
461.0
30
0.0
11
5664.0
21
370.0
31
0.0
0
TEXT
5
B0
100
AcDbEntity
8
TEXTO
100
AcDbText
10
3660.0
20
509.5
30
0.0
40
48.0
1
fila5: 6
0
SEQEND
0
LINE
5
B1
100
AcDbEntity
8
CELDAS
100
AcDbLine
10
4646.5
20
464.0
30
0.0
11
4828.5
21
464.0
31
0.0
0
LINE
5
B2
100
AcDbEntity
8
CELDAS
100
AcDbLine
10
4828.5
20
464.0
30
0.0
11
4828.5
21
555.0
31
0.0
0
LINE
5
B3
100
AcDbEntity
8
CELDAS
100
AcDbLine
10
4828.5
20
555.0
30
0.0
11
4646.5
21
555.0
31
0.0
0
LINE
5
B4
100
AcDbEntity
8
CELDAS
100
AcDbLine
10
4646.5
20
555.0
30
0.0
11
4646.5
21
464.0
31
0.0
0
LINE
5
B5
100
AcDbEntity
8
CELDAS
100
AcDbLine
10
4831.5
20
464.0
30
0.0
11
5013.5
21
464.0
31
0.0
0
LINE
5
B6
100
AcDbEntity
8
CELDAS
100
AcDbLine
10
5013.5
20
464.0
30
0.0
11
5013.5
21
555.0
31
0.0
0
LINE
5
B7
100
AcDbEntity
8
CELDAS
100
AcDbLine
10
5013.5
20
555.0
30
0.0
11
4831.5
21
555.0
31
0.0
0
LINE
5
B8
100
AcDbEntity
8
CELDAS
100
AcDbLine
10
4831.5
20
555.0
30
0.0
11
4831.5
21
464.0
31
0.0
0
LINE
5
B9
100
AcDbEntity
8
CELDAS
100
AcDbLine
10
5016.5
20
464.0
30
0.0
11
5198.5
21
464.0
31
0.0
0
LINE
5
BA
100
AcDbEntity
8
CELDAS
100
AcDbLine
10
5198.5
20
464.0
30
0.0
11
5198.5
21
555.0
31
0.0
0
LINE
5
BB
100
AcDbEntity
8
CELDAS
100
AcDbLine
10
5198.5
20
555.0
30
0.0
11
5016.5
21
555.0
31
0.0
0
LINE
5
BC
100
AcDbEntity
8
CELDAS
100
AcDbLine
10
5016.5
20
555.0
30
0.0
11
5016.5
21
464.0
31
0.0
0
LINE
5
BD
100
AcDbEntity
8
CELDAS
100
AcDbLine
10
5201.5
20
464.0
30
0.0
11
5383.5
21
464.0
31
0.0
0
LINE
5
BE
100
AcDbEntity
8
CELDAS
100
AcDbLine
10
5383.5
20
464.0
30
0.0
11
5383.5
21
555.0
31
0.0
0
LINE
5
BF
100
AcDbEntity
8
CELDAS
100
AcDbLine
10
5383.5
20
555.0
30
0.0
11
5201.5
21
555.0
31
0.0
0
LINE
5
C0
100
AcDbEntity
8
CELDAS
100
AcDbLine
10
5201.5
20
555.0
30
0.0
11
5201.5
21
464.0
31
0.0
0
LINE
5
C1
100
AcDbEntity
8
CELDAS
100
AcDbLine
10
5386.5
20
464.0
30
0.0
11
5568.5
21
464.0
31
0.0
0
LINE
5
C2
100
AcDbEntity
8
CELDAS
100
AcDbLine
10
5568.5
20
464.0
30
0.0
11
5568.5
21
555.0
31
0.0
0
LINE
5
C3
100
AcDbEntity
8
CELDAS
100
AcDbLine
10
5568.5
20
555.0
30
0.0
11
5386.5
21
555.0
31
0.0
0
LINE
5
C4
100
AcDbEntity
8
CELDAS
100
AcDbLine
10
5386.5
20
555.0
30
0.0
11
5386.5
21
464.0
31
0.0
0
LINE
5
C5
100
AcDbEntity
8
CELDAS
100
AcDbLine
10
5571.5
20
464.0
30
0.0
11
5753.5
21
464.0
31
0.0
0
LINE
5
C6
100
AcDbEntity
8
CELDAS
100
AcDbLine
10
5753.5
20
464.0
30
0.0
11
5753.5
21
555.0
31
0.0
0
LINE
5
C7
100
AcDbEntity
8
CELDAS
100
AcDbLine
10
5753.5
20
555.0
30
0.0
11
5571.5
21
555.0
31
0.0
0
LINE
5
C8
100
AcDbEntity
8
CELDAS
100
AcDbLine
10
5571.5
20
555.0
30
0.0
11
5571.5
21
464.0
31
0.0
0
TEXT
5
C9
100
AcDbEntity
8
TEXTO
100
AcDbText
10
3660.0
20
603.5
30
0.0
40
48.0
1
fila6: 6
0
SEQEND
0
LINE
5
CA
100
AcDbEntity
8
CELDAS
100
AcDbLine
10
4646.5
20
558.0
30
0.0
11
4828.5
21
558.0
31
0.0
0
LINE
5
CB
100
AcDbEntity
8
CELDAS
100
AcDbLine
10
4828.5
20
558.0
30
0.0
11
4828.5
21
649.0
31
0.0
0
LINE
5
CC
100
AcDbEntity
8
CELDAS
100
AcDbLine
10
4828.5
20
649.0
30
0.0
11
4646.5
21
649.0
31
0.0
0
LINE
5
CD
100
AcDbEntity
8
CELDAS
100
AcDbLine
10
4646.5
20
649.0
30
0.0
11
4646.5
21
558.0
31
0.0
0
LINE
5
CE
100
AcDbEntity
8
CELDAS
100
AcDbLine
10
4831.5
20
558.0
30
0.0
11
5013.5
21
558.0
31
0.0
0
LINE
5
CF
100
AcDbEntity
8
CELDAS
100
AcDbLine
10
5013.5
20
558.0
30
0.0
11
5013.5
21
649.0
31
0.0
0
LINE
5
D0
100
AcDbEntity
8
CELDAS
100
AcDbLine
10
5013.5
20
649.0
30
0.0
11
4831.5
21
649.0
31
0.0
0
LINE
5
D1
100
AcDbEntity
8
CELDAS
100
AcDbLine
10
4831.5
20
649.0
30
0.0
11
4831.5
21
558.0
31
0.0
0
LINE
5
D2
100
AcDbEntity
8
CELDAS
100
AcDbLine
10
5016.5
20
558.0
30
0.0
11
5198.5
21
558.0
31
0.0
0
LINE
5
D3
100
AcDbEntity
8
CELDAS
100
AcDbLine
10
5198.5
20
558.0
30
0.0
11
5198.5
21
649.0
31
0.0
0
LINE
5
D4
100
AcDbEntity
8
CELDAS
100
AcDbLine
10
5198.5
20
649.0
30
0.0
11
5016.5
21
649.0
31
0.0
0
LINE
5
D5
100
AcDbEntity
8
CELDAS
100
AcDbLine
10
5016.5
20
649.0
30
0.0
11
5016.5
21
558.0
31
0.0
0
LINE
5
D6
100
AcDbEntity
8
CELDAS
100
AcDbLine
10
5201.5
20
558.0
30
0.0
11
5383.5
21
558.0
31
0.0
0
LINE
5
D7
100
AcDbEntity
8
CELDAS
100
AcDbLine
10
5383.5
20
558.0
30
0.0
11
5383.5
21
649.0
31
0.0
0
LINE
5
D8
100
AcDbEntity
8
CELDAS
100
AcDbLine
10
5383.5
20
649.0
30
0.0
11
5201.5
21
649.0
31
0.0
0
LINE
5
D9
100
AcDbEntity
8
CELDAS
100
AcDbLine
10
5201.5
20
649.0
30
0.0
11
5201.5
21
558.0
31
0.0
0
LINE
5
DA
100
AcDbEntity
8
CELDAS
100
AcDbLine
10
5386.5
20
558.0
30
0.0
11
5568.5
21
558.0
31
0.0
0
LINE
5
DB
100
AcDbEntity
8
CELDAS
100
AcDbLine
10
5568.5
20
558.0
30
0.0
11
5568.5
21
649.0
31
0.0
0
LINE
5
DC
100
AcDbEntity
8
CELDAS
100
AcDbLine
10
5568.5
20
649.0
30
0.0
11
5386.5
21
649.0
31
0.0
0
LINE
5
DD
100
AcDbEntity
8
CELDAS
100
AcDbLine
10
5386.5
20
649.0
30
0.0
11
5386.5
21
558.0
31
0.0
0
LINE
5
DE
100
AcDbEntity
8
CELDAS
100
AcDbLine
10
5571.5
20
558.0
30
0.0
11
5753.5
21
558.0
31
0.0
0
LINE
5
DF
100
AcDbEntity
8
CELDAS
100
AcDbLine
10
5753.5
20
558.0
30
0.0
11
5753.5
21
649.0
31
0.0
0
LINE
5
E0
100
AcDbEntity
8
CELDAS
100
AcDbLine
10
5753.5
20
649.0
30
0.0
11
5571.5
21
649.0
31
0.0
0
LINE
5
E1
100
AcDbEntity
8
CELDAS
100
AcDbLine
10
5571.5
20
649.0
30
0.0
11
5571.5
21
558.0
31
0.0
0
TEXT
5
E2
100
AcDbEntity
8
TEXTO
100
AcDbText
10
3660.0
20
697.5
30
0.0
40
48.0
1
fila7: 5
0
SEQEND
0
LINE
5
E3
100
AcDbEntity
8
CELDAS
100
AcDbLine
10
4739.0
20
652.0
30
0.0
11
4921.0
21
652.0
31
0.0
0
LINE
5
E4
100
AcDbEntity
8
CELDAS
100
AcDbLine
10
4921.0
20
652.0
30
0.0
11
4921.0
21
743.0
31
0.0
0
LINE
5
E5
100
AcDbEntity
8
CELDAS
100
AcDbLine
10
4921.0
20
743.0
30
0.0
11
4739.0
21
743.0
31
0.0
0
LINE
5
E6
100
AcDbEntity
8
CELDAS
100
AcDbLine
10
4739.0
20
743.0
30
0.0
11
4739.0
21
652.0
31
0.0
0
LINE
5
E7
100
AcDbEntity
8
CELDAS
100
AcDbLine
10
4924.0
20
652.0
30
0.0
11
5106.0
21
652.0
31
0.0
0
LINE
5
E8
100
AcDbEntity
8
CELDAS
100
AcDbLine
10
5106.0
20
652.0
30
0.0
11
5106.0
21
743.0
31
0.0
0
LINE
5
E9
100
AcDbEntity
8
CELDAS
100
AcDbLine
10
5106.0
20
743.0
30
0.0
11
4924.0
21
743.0
31
0.0
0
LINE
5
EA
100
AcDbEntity
8
CELDAS
100
AcDbLine
10
4924.0
20
743.0
30
0.0
11
4924.0
21
652.0
31
0.0
0
LINE
5
EB
100
AcDbEntity
8
CELDAS
100
AcDbLine
10
5109.0
20
652.0
30
0.0
11
5291.0
21
652.0
31
0.0
0
LINE
5
EC
100
AcDbEntity
8
CELDAS
100
AcDbLine
10
5291.0
20
652.0
30
0.0
11
5291.0
21
743.0
31
0.0
0
LINE
5
ED
100
AcDbEntity
8
CELDAS
100
AcDbLine
10
5291.0
20
743.0
30
0.0
11
5109.0
21
743.0
31
0.0
0
LINE
5
EE
100
AcDbEntity
8
CELDAS
100
AcDbLine
10
5109.0
20
743.0
30
0.0
11
5109.0
21
652.0
31
0.0
0
LINE
5
EF
100
AcDbEntity
8
CELDAS
100
AcDbLine
10
5294.0
20
652.0
30
0.0
11
5476.0
21
652.0
31
0.0
0
LINE
5
F0
100
AcDbEntity
8
CELDAS
100
AcDbLine
10
5476.0
20
652.0
30
0.0
11
5476.0
21
743.0
31
0.0
0
LINE
5
F1
100
AcDbEntity
8
CELDAS
100
AcDbLine
10
5476.0
20
743.0
30
0.0
11
5294.0
21
743.0
31
0.0
0
LINE
5
F2
100
AcDbEntity
8
CELDAS
100
AcDbLine
10
5294.0
20
743.0
30
0.0
11
5294.0
21
652.0
31
0.0
0
LINE
5
F3
100
AcDbEntity
8
CELDAS
100
AcDbLine
10
5479.0
20
652.0
30
0.0
11
5661.0
21
652.0
31
0.0
0
LINE
5
F4
100
AcDbEntity
8
CELDAS
100
AcDbLine
10
5661.0
20
652.0
30
0.0
11
5661.0
21
743.0
31
0.0
0
LINE
5
F5
100
AcDbEntity
8
CELDAS
100
AcDbLine
10
5661.0
20
743.0
30
0.0
11
5479.0
21
743.0
31
0.0
0
LINE
5
F6
100
AcDbEntity
8
CELDAS
100
AcDbLine
10
5479.0
20
743.0
30
0.0
11
5479.0
21
652.0
31
0.0
0
TEXT
5
F7
100
AcDbEntity
8
TEXTO
100
AcDbText
10
3660.0
20
791.5
30
0.0
40
48.0
1
fila8: 4
0
SEQEND
0
LINE
5
F8
100
AcDbEntity
8
CELDAS
100
AcDbLine
10
4831.5
20
746.0
30
0.0
11
5013.5
21
746.0
31
0.0
0
LINE
5
F9
100
AcDbEntity
8
CELDAS
100
AcDbLine
10
5013.5
20
746.0
30
0.0
11
5013.5
21
837.0
31
0.0
0
LINE
5
FA
100
AcDbEntity
8
CELDAS
100
AcDbLine
10
5013.5
20
837.0
30
0.0
11
4831.5
21
837.0
31
0.0
0
LINE
5
FB
100
AcDbEntity
8
CELDAS
100
AcDbLine
10
4831.5
20
837.0
30
0.0
11
4831.5
21
746.0
31
0.0
0
LINE
5
FC
100
AcDbEntity
8
CELDAS
100
AcDbLine
10
5016.5
20
746.0
30
0.0
11
5198.5
21
746.0
31
0.0
0
LINE
5
FD
100
AcDbEntity
8
CELDAS
100
AcDbLine
10
5198.5
20
746.0
30
0.0
11
5198.5
21
837.0
31
0.0
0
LINE
5
FE
100
AcDbEntity
8
CELDAS
100
AcDbLine
10
5198.5
20
837.0
30
0.0
11
5016.5
21
837.0
31
0.0
0
LINE
5
FF
100
AcDbEntity
8
CELDAS
100
AcDbLine
10
5016.5
20
837.0
30
0.0
11
5016.5
21
746.0
31
0.0
0
LINE
5
100
100
AcDbEntity
8
CELDAS
100
AcDbLine
10
5201.5
20
746.0
30
0.0
11
5383.5
21
746.0
31
0.0
0
LINE
5
101
100
AcDbEntity
8
CELDAS
100
AcDbLine
10
5383.5
20
746.0
30
0.0
11
5383.5
21
837.0
31
0.0
0
LINE
5
102
100
AcDbEntity
8
CELDAS
100
AcDbLine
10
5383.5
20
837.0
30
0.0
11
5201.5
21
837.0
31
0.0
0
LINE
5
103
100
AcDbEntity
8
CELDAS
100
AcDbLine
10
5201.5
20
837.0
30
0.0
11
5201.5
21
746.0
31
0.0
0
LINE
5
104
100
AcDbEntity
8
CELDAS
100
AcDbLine
10
5386.5
20
746.0
30
0.0
11
5568.5
21
746.0
31
0.0
0
LINE
5
105
100
AcDbEntity
8
CELDAS
100
AcDbLine
10
5568.5
20
746.0
30
0.0
11
5568.5
21
837.0
31
0.0
0
LINE
5
106
100
AcDbEntity
8
CELDAS
100
AcDbLine
10
5568.5
20
837.0
30
0.0
11
5386.5
21
837.0
31
0.0
0
LINE
5
107
100
AcDbEntity
8
CELDAS
100
AcDbLine
10
5386.5
20
837.0
30
0.0
11
5386.5
21
746.0
31
0.0
0
TEXT
5
108
100
AcDbEntity
8
TEXTO
100
AcDbText
10
3660.0
20
885.5
30
0.0
40
48.0
1
fila9: 3
0
SEQEND
0
LINE
5
109
100
AcDbEntity
8
CELDAS
100
AcDbLine
10
4924.0
20
840.0
30
0.0
11
5106.0
21
840.0
31
0.0
0
LINE
5
10A
100
AcDbEntity
8
CELDAS
100
AcDbLine
10
5106.0
20
840.0
30
0.0
11
5106.0
21
931.0
31
0.0
0
LINE
5
10B
100
AcDbEntity
8
CELDAS
100
AcDbLine
10
5106.0
20
931.0
30
0.0
11
4924.0
21
931.0
31
0.0
0
LINE
5
10C
100
AcDbEntity
8
CELDAS
100
AcDbLine
10
4924.0
20
931.0
30
0.0
11
4924.0
21
840.0
31
0.0
0
LINE
5
10D
100
AcDbEntity
8
CELDAS
100
AcDbLine
10
5109.0
20
840.0
30
0.0
11
5291.0
21
840.0
31
0.0
0
LINE
5
10E
100
AcDbEntity
8
CELDAS
100
AcDbLine
10
5291.0
20
840.0
30
0.0
11
5291.0
21
931.0
31
0.0
0
LINE
5
10F
100
AcDbEntity
8
CELDAS
100
AcDbLine
10
5291.0
20
931.0
30
0.0
11
5109.0
21
931.0
31
0.0
0
LINE
5
110
100
AcDbEntity
8
CELDAS
100
AcDbLine
10
5109.0
20
931.0
30
0.0
11
5109.0
21
840.0
31
0.0
0
LINE
5
111
100
AcDbEntity
8
CELDAS
100
AcDbLine
10
5294.0
20
840.0
30
0.0
11
5476.0
21
840.0
31
0.0
0
LINE
5
112
100
AcDbEntity
8
CELDAS
100
AcDbLine
10
5476.0
20
840.0
30
0.0
11
5476.0
21
931.0
31
0.0
0
LINE
5
113
100
AcDbEntity
8
CELDAS
100
AcDbLine
10
5476.0
20
931.0
30
0.0
11
5294.0
21
931.0
31
0.0
0
LINE
5
114
100
AcDbEntity
8
CELDAS
100
AcDbLine
10
5294.0
20
931.0
30
0.0
11
5294.0
21
840.0
31
0.0
0
TEXT
5
115
100
AcDbEntity
8
TEXTO
100
AcDbText
10
3660.0
20
979.5
30
0.0
40
48.0
1
fila10: 2
0
SEQEND
0
LINE
5
116
100
AcDbEntity
8
CELDAS
100
AcDbLine
10
5016.5
20
934.0
30
0.0
11
5198.5
21
934.0
31
0.0
0
LINE
5
117
100
AcDbEntity
8
CELDAS
100
AcDbLine
10
5198.5
20
934.0
30
0.0
11
5198.5
21
1025.0
31
0.0
0
LINE
5
118
100
AcDbEntity
8
CELDAS
100
AcDbLine
10
5198.5
20
1025.0
30
0.0
11
5016.5
21
1025.0
31
0.0
0
LINE
5
119
100
AcDbEntity
8
CELDAS
100
AcDbLine
10
5016.5
20
1025.0
30
0.0
11
5016.5
21
934.0
31
0.0
0
LINE
5
11A
100
AcDbEntity
8
CELDAS
100
AcDbLine
10
5201.5
20
934.0
30
0.0
11
5383.5
21
934.0
31
0.0
0
LINE
5
11B
100
AcDbEntity
8
CELDAS
100
AcDbLine
10
5383.5
20
934.0
30
0.0
11
5383.5
21
1025.0
31
0.0
0
LINE
5
11C
100
AcDbEntity
8
CELDAS
100
AcDbLine
10
5383.5
20
1025.0
30
0.0
11
5201.5
21
1025.0
31
0.0
0
LINE
5
11D
100
AcDbEntity
8
CELDAS
100
AcDbLine
10
5201.5
20
1025.0
30
0.0
11
5201.5
21
934.0
31
0.0
0
TEXT
5
11E
100
AcDbEntity
8
TEXTO
100
AcDbText
10
5200.0
20
-300.0
30
0.0
40
60.0
1
CARA EN VERDADERO TAMANO (desarrollo) + perfil escalonado
0
SEQEND
0
ENDSEC
0
EOF
